# xmcd
#
# Track frame offsets:
#	150
#	22820
#	38943
#	52705
#	73511
#	91697
#	103195
#	118660
#	134923
#	150591
#	168406
#	180047
#	199311
#	215001
#	232415
#	250732
#	263711
#	276685
#	294862
#	313443
#	332031
#
# Disc length: 4617
#
# Revision: 1
# Processed by: cddbd v1.5.1PL0 Copyright (c) Steve Scherf et al.
# Submitted via: audiograbber 1.82.00
# Normalized: r0:DSETVAR1,TDELIM( - )
#
DISCID=39120715
DTITLE=Various Artist - CDX VOLUME 354
DYEAR=2004
DGENRE=
TTITLE0=Tim Mcgraw - Back When
TTITLE1=Andy Griggs - If Heaven
TTITLE2=Mark Chesnutt - I'm A Saint
TTITLE3=Lyle Lovett - In My Own Mind
TTITLE4=Terri Clark - I Think The World Needs A Drink
TTITLE5=Willie Nelson - Midnight Rider
TTITLE6=Alan Jackson - Monday Morning Church
TTITLE7=Rodney Atkins - Monkey In The Middle
TTITLE8=Shania Twain - Party For Two
TTITLE9=Tracy Byrd - Revenge Of The Middle-Aged Woman
TTITLE10=Tracy Lawrence - Sawdust On Her Halo
TTITLE11=Tracy Lawrence - Sawdust On Her Halo Clubmix
TTITLE12=Chad Brock - That Changed Me
TTITLE13=Hal Bynum - Train Whistles At Night
TTITLE14=Uncle Kracker - Writing It Down
TTITLE15=Randy Huston - America Needs The Cowboy
TTITLE16=Matt Dylan - Let's Get It On
TTITLE17=Jason Boland - Somewhere In The Middle
TTITLE18=Gary Campbell - We Can't Get Along
TTITLE19=Leland Martin - Our American Heroes
TTITLE20=Pete Schlegel - Whole Lotta Liquor To Like Her
EXTD=
EXTT0=
EXTT1=
EXTT2=
EXTT3=
EXTT4=
EXTT5=
EXTT6=
EXTT7=
EXTT8=
EXTT9=
EXTT10=
EXTT11=
EXTT12=
EXTT13=
EXTT14=
EXTT15=
EXTT16=
EXTT17=
EXTT18=
EXTT19=
EXTT20=
PLAYORDER=
